solid Untitled-562555c6
facet normal 0.0 0.0 -1.0
  outer loop
    vertex -24.27050983124842 17.6335575687742 0.0
    vertex -24.27050983124843 -17.63355756877419 0.0
    vertex -30.0 3.67394039744206e-15 0.0
  endloop
endfacet
facet normal 0.0 0.0 -1.0
  outer loop
    vertex -24.27050983124843 -17.63355756877419 0.0
    vertex -24.27050983124842 17.6335575687742 0.0
    vertex -9.270509831248427 -28.53169548885461 0.0
  endloop
endfacet
facet normal 0.0 0.0 -1.0
  outer loop
    vertex -9.270509831248427 -28.53169548885461 0.0
    vertex -24.27050983124842 17.6335575687742 0.0
    vertex -9.27050983124842 28.53169548885461 0.0
  endloop
endfacet
facet normal 0.0 0.0 -1.0
  outer loop
    vertex -9.270509831248427 -28.53169548885461 0.0
    vertex -9.27050983124842 28.53169548885461 0.0
    vertex 9.270509831248418 -28.53169548885461 0.0
  endloop
endfacet
facet normal 0.0 0.0 -1.0
  outer loop
    vertex 9.270509831248418 -28.53169548885461 0.0
    vertex -9.27050983124842 28.53169548885461 0.0
    vertex 9.270509831248425 28.53169548885461 0.0
  endloop
endfacet
facet normal 0.0 0.0 -1.0
  outer loop
    vertex 9.270509831248418 -28.53169548885461 0.0
    vertex 9.270509831248425 28.53169548885461 0.0
    vertex 24.27050983124842 -17.6335575687742 0.0
  endloop
endfacet
facet normal 0.0 0.0 -1.0
  outer loop
    vertex 24.27050983124842 -17.6335575687742 0.0
    vertex 9.270509831248425 28.53169548885461 0.0
    vertex 24.270509831248425 17.633557568774194 0.0
  endloop
endfacet
facet normal 0.0 0.0 -1.0
  outer loop
    vertex 24.27050983124842 -17.6335575687742 0.0
    vertex 24.270509831248425 17.633557568774194 0.0
    vertex 30.0 0.0 0.0
  endloop
endfacet
facet normal 1.5456537151821593e-17 0.9811898463660036 0.19304529361851444
  outer loop
    vertex -14.647512758919785 27.547964897198526 5.0
    vertex 9.270509831248425 28.53169548885461 0.0
    vertex -9.27050983124842 28.53169548885461 0.0
  endloop
endfacet
facet normal -0.14646421545646815 0.8306398423428403 -0.5372017180756059
  outer loop
    vertex 4.342200749954044 30.89636374473699 5.0
    vertex 9.270509831248425 28.53169548885461 0.0
    vertex -14.647512758919785 27.547964897198526 5.0
  endloop
endfacet
facet normal -0.576728921393054 0.7937992604182406 0.19304529361851575
  outer loop
    vertex -28.042374244534003 13.677179779819221 5.0
    vertex -9.27050983124842 28.53169548885461 0.0
    vertex -24.27050983124842 17.6335575687742 0.0
  endloop
endfacet
facet normal -0.6067298886677431 0.5859122428263851 -0.5372017180756065
  outer loop
    vertex -9.27050983124842 28.53169548885461 0.0
    vertex -28.042374244534003 13.677179779819221 5.0
    vertex -14.647512758919785 27.547964897198526 5.0
  endloop
endfacet
facet normal -0.9902436987683018 0.1391696759836814 0.007015578113748825
  outer loop
    vertex -28.042374244534003 13.677179779819221 5.0
    vertex -30.0 3.67394039744206e-15 0.0
    vertex -30.726001893980897 -5.417823143208224 5.0
  endloop
endfacet
facet normal -0.8597552503475578 0.27935141477757497 -0.42753210003644804
  outer loop
    vertex -24.27050983124842 17.6335575687742 0.0
    vertex -30.0 3.67394039744206e-15 0.0
    vertex -28.042374244534003 13.677179779819221 5.0
  endloop
endfacet
facet normal -0.8829258639857918 -0.46946000933910553 0.007015578113749112
  outer loop
    vertex -30.726001893980897 -5.417823143208224 5.0
    vertex -24.27050983124843 -17.63355756877419 0.0
    vertex -21.673341158320717 -22.443401770565913 5.0
  endloop
endfacet
facet normal -0.8597552503475573 -0.27935141477757436 -0.42753210003645004
  outer loop
    vertex -30.0 3.67394039744206e-15 0.0
    vertex -24.27050983124843 -17.63355756877419 0.0
    vertex -30.726001893980897 -5.417823143208224 5.0
  endloop
endfacet
facet normal -0.5767289213930543 -0.7937992604182403 0.19304529361851544
  outer loop
    vertex -4.3422007499540465 -30.89636374473699 5.0
    vertex -24.27050983124843 -17.63355756877419 0.0
    vertex -9.270509831248427 -28.53169548885461 0.0
  endloop
endfacet
facet normal -0.3697458099235895 -0.7580912544941838 -0.5372017180756065
  outer loop
    vertex -21.673341158320717 -22.443401770565913 5.0
    vertex -24.27050983124843 -17.63355756877419 0.0
    vertex -4.3422007499540465 -30.89636374473699 5.0
  endloop
endfacet
facet normal 0.0 -0.9811898463660038 0.19304529361851336
  outer loop
    vertex 14.647512758919781 -27.54796489719853 5.0
    vertex -9.270509831248427 -28.53169548885461 0.0
    vertex 9.270509831248418 -28.53169548885461 0.0
  endloop
endfacet
facet normal 0.14646421545646793 -0.8306398423428404 -0.5372017180756057
  outer loop
    vertex -4.3422007499540465 -30.89636374473699 5.0
    vertex -9.270509831248427 -28.53169548885461 0.0
    vertex 14.647512758919781 -27.54796489719853 5.0
  endloop
endfacet
facet normal 0.576728921393054 -0.7937992604182406 0.19304529361851605
  outer loop
    vertex 28.042374244534003 -13.677179779819223 5.0
    vertex 9.270509831248418 -28.53169548885461 0.0
    vertex 24.27050983124842 -17.6335575687742 0.0
  endloop
endfacet
facet normal 0.6067298886677429 -0.5859122428263851 -0.5372017180756065
  outer loop
    vertex 28.042374244534003 -13.677179779819223 5.0
    vertex 14.647512758919781 -27.54796489719853 5.0
    vertex 9.270509831248418 -28.53169548885461 0.0
  endloop
endfacet
facet normal 0.8597552503475581 -0.27935141477757486 -0.42753210003644815
  outer loop
    vertex 30.0 0.0 0.0
    vertex 28.042374244534003 -13.677179779819223 5.0
    vertex 24.27050983124842 -17.6335575687742 0.0
  endloop
endfacet
facet normal 0.9902436987683018 -0.13916967598368132 0.007015578113748761
  outer loop
    vertex 30.726001893980897 5.417823143208228 5.0
    vertex 28.042374244534003 -13.677179779819223 5.0
    vertex 30.0 0.0 0.0
  endloop
endfacet
facet normal 0.8597552503475571 0.2793514147775744 -0.4275321000364501
  outer loop
    vertex 24.270509831248425 17.633557568774194 0.0
    vertex 30.726001893980897 5.417823143208228 5.0
    vertex 30.0 0.0 0.0
  endloop
endfacet
facet normal 0.8829258639857918 0.46946000933910575 0.007015578113748784
  outer loop
    vertex 21.673341158320717 22.443401770565917 5.0
    vertex 30.726001893980897 5.417823143208228 5.0
    vertex 24.270509831248425 17.633557568774194 0.0
  endloop
endfacet
facet normal 0.5767289213930543 0.7937992604182401 0.19304529361851636
  outer loop
    vertex 4.342200749954044 30.89636374473699 5.0
    vertex 24.270509831248425 17.633557568774194 0.0
    vertex 9.270509831248425 28.53169548885461 0.0
  endloop
endfacet
facet normal 0.36974580992358935 0.7580912544941836 -0.5372017180756068
  outer loop
    vertex 21.673341158320717 22.443401770565917 5.0
    vertex 24.270509831248425 17.633557568774194 0.0
    vertex 4.342200749954044 30.89636374473699 5.0
  endloop
endfacet
facet normal -0.999387871213203 -0.03489939348348289 0.002432119739514216
  outer loop
    vertex -31.19101950980653 8.943880921549994 20.0
    vertex -30.726001893980897 -5.417823143208224 5.0
    vertex -30.491146159261152 -11.097869610631294 20.0
  endloop
endfacet
facet normal -0.9772214445026943 0.1373395174994861 -0.16179031286537515
  outer loop
    vertex -28.042374244534003 13.677179779819221 5.0
    vertex -30.726001893980897 -5.417823143208224 5.0
    vertex -31.19101950980653 8.943880921549994 20.0
  endloop
endfacet
facet normal -0.8290351205872277 0.5591912495975716 0.0024321197395140957
  outer loop
    vertex -19.976983551366956 25.569372933030916 20.0
    vertex -28.042374244534003 13.677179779819221 5.0
    vertex -31.19101950980653 8.943880921549994 20.0
  endloop
endfacet
facet normal -0.7098626129271525 0.6855063569589701 -0.16179031286537748
  outer loop
    vertex -14.647512758919785 27.547964897198526 5.0
    vertex -28.042374244534003 13.677179779819221 5.0
    vertex -19.976983551366956 25.569372933030916 20.0
  endloop
endfacet
facet normal -0.17324567873900543 0.982525068159854 0.06804722797980695
  outer loop
    vertex -19.976983551366956 25.569372933030916 20.0
    vertex 4.342200749954044 30.89636374473699 5.0
    vertex -14.647512758919785 27.547964897198526 5.0
  endloop
endfacet
facet normal -0.3339763064359532 0.9175923605656404 -0.21560168499103682
  outer loop
    vertex -1.1324188690027488 32.42823355511561 20.0
    vertex 4.342200749954044 30.89636374473699 5.0
    vertex -19.976983551366956 25.569372933030916 20.0
  endloop
endfacet
facet normal 0.4373550467701409 0.8967107325269127 0.06804722797980707
  outer loop
    vertex -1.1324188690027488 32.42823355511561 20.0
    vertex 21.673341158320717 22.443401770565917 5.0
    vertex 4.342200749954044 30.89636374473699 5.0
  endloop
endfacet
facet normal 0.26915474953145946 0.9386541611443927 -0.2156016849910363
  outer loop
    vertex 18.144691331818784 26.90061115426598 20.0
    vertex 21.673341158320717 22.443401770565917 5.0
    vertex -1.1324188690027488 32.42823355511561 20.0
  endloop
endfacet
facet normal 0.8713148988134757 0.46328634964629234 -0.16179031286537685
  outer loop
    vertex 21.673341158320717 22.443401770565917 5.0
    vertex 30.491146159261152 11.097869610631296 20.0
    vertex 30.726001893980897 5.417823143208228 5.0
  endloop
endfacet
facet normal 0.7880084229801377 0.6156596544406081 0.0024321197395138165
  outer loop
    vertex 18.144691331818784 26.90061115426598 20.0
    vertex 30.491146159261152 11.097869610631296 20.0
    vertex 21.673341158320717 22.443401770565917 5.0
  endloop
endfacet
facet normal 0.9772214445026943 -0.13733951749948609 -0.1617903128653752
  outer loop
    vertex 30.726001893980897 5.417823143208228 5.0
    vertex 31.19101950980653 -8.943880921549995 20.0
    vertex 28.042374244534003 -13.677179779819223 5.0
  endloop
endfacet
facet normal 0.999387871213203 0.03489939348348289 0.0024321197395142245
  outer loop
    vertex 30.491146159261152 11.097869610631296 20.0
    vertex 31.19101950980653 -8.943880921549995 20.0
    vertex 30.726001893980897 5.417823143208228 5.0
  endloop
endfacet
facet normal 0.7098626129271525 -0.6855063569589701 -0.16179031286537743
  outer loop
    vertex 28.042374244534003 -13.677179779819223 5.0
    vertex 19.976983551366953 -25.569372933030923 20.0
    vertex 14.647512758919781 -27.54796489719853 5.0
  endloop
endfacet
facet normal 0.8290351205872277 -0.5591912495975715 0.0024321197395141235
  outer loop
    vertex 31.19101950980653 -8.943880921549995 20.0
    vertex 19.976983551366953 -25.569372933030923 20.0
    vertex 28.042374244534003 -13.677179779819223 5.0
  endloop
endfacet
facet normal 0.17324567873900523 -0.982525068159854 0.06804722797980696
  outer loop
    vertex 19.976983551366953 -25.569372933030923 20.0
    vertex -4.3422007499540465 -30.89636374473699 5.0
    vertex 14.647512758919781 -27.54796489719853 5.0
  endloop
endfacet
facet normal 0.33397630643595294 -0.9175923605656404 -0.21560168499103666
  outer loop
    vertex 1.132418869002746 -32.42823355511561 20.0
    vertex -4.3422007499540465 -30.89636374473699 5.0
    vertex 19.976983551366953 -25.569372933030923 20.0
  endloop
endfacet
facet normal -0.4373550467701411 -0.8967107325269125 0.06804722797980718
  outer loop
    vertex 1.132418869002746 -32.42823355511561 20.0
    vertex -21.673341158320717 -22.443401770565913 5.0
    vertex -4.3422007499540465 -30.89636374473699 5.0
  endloop
endfacet
facet normal -0.2691547495314597 -0.9386541611443926 -0.21560168499103607
  outer loop
    vertex -18.144691331818784 -26.900611154265977 20.0
    vertex -21.673341158320717 -22.443401770565913 5.0
    vertex 1.132418869002746 -32.42823355511561 20.0
  endloop
endfacet
facet normal -0.7880084229801376 -0.6156596544406082 0.00243211973951403
  outer loop
    vertex -30.491146159261152 -11.097869610631294 20.0
    vertex -21.673341158320717 -22.443401770565913 5.0
    vertex -18.144691331818784 -26.900611154265977 20.0
  endloop
endfacet
facet normal -0.8713148988134757 -0.463286349646292 -0.16179031286537687
  outer loop
    vertex -30.726001893980897 -5.417823143208224 5.0
    vertex -21.673341158320717 -22.443401770565913 5.0
    vertex -30.491146159261152 -11.097869610631294 20.0
  endloop
endfacet
facet normal -0.274946517919007 -0.9588524578745056 0.07075575108945384
  outer loop
    vertex 7.016171285400836 -33.00849068255493 35.0
    vertex -18.144691331818784 -26.900611154265977 20.0
    vertex 1.132418869002746 -32.42823355511561 20.0
  endloop
endfacet
facet normal -0.1018770674040507 -0.9692955488095306 -0.22380170284245302
  outer loop
    vertex -13.725702218304496 -30.828431929970566 35.0
    vertex -18.144691331818784 -26.900611154265977 20.0
    vertex 7.016171285400836 -33.00849068255493 35.0
  endloop
endfacet
facet normal -0.6691284658453721 -0.74314244819633 0.002529403918646684
  outer loop
    vertex -29.22482399407735 -16.872959999999996 35.0
    vertex -18.144691331818784 -26.900611154265977 20.0
    vertex -13.725702218304496 -30.828431929970566 35.0
  endloop
endfacet
facet normal -0.7767996693750004 -0.6069024163578588 -0.16808251151705997
  outer loop
    vertex -30.491146159261152 -11.097869610631294 20.0
    vertex -18.144691331818784 -26.900611154265977 20.0
    vertex -29.22482399407735 -16.872959999999996 35.0
  endloop
endfacet
facet normal -0.9781444716912692 -0.20791102571923495 0.0025294039186474163
  outer loop
    vertex -33.56105631934608 3.52740915915318 35.0
    vertex -30.491146159261152 -11.097869610631294 20.0
    vertex -29.22482399407735 -16.872959999999996 35.0
  endloop
endfacet
facet normal -0.9851724236650314 -0.03440297911643118 -0.1680825115170594
  outer loop
    vertex -31.19101950980653 8.943880921549994 20.0
    vertex -30.491146159261152 -11.097869610631294 20.0
    vertex -33.56105631934608 3.52740915915318 35.0
  endloop
endfacet
facet normal -0.9135425352589106 0.40673534194674904 0.002529403918645278
  outer loop
    vertex -25.078105828974124 22.58042791173753 35.0
    vertex -31.19101950980653 8.943880921549994 20.0
    vertex -33.56105631934608 3.52740915915318 35.0
  endloop
endfacet
facet normal -0.8172427968941316 0.5512372268332155 -0.16808251151706202
  outer loop
    vertex -19.976983551366956 25.569372933030916 20.0
    vertex -31.19101950980653 8.943880921549994 20.0
    vertex -25.078105828974124 22.58042791173753 35.0
  endloop
endfacet
facet normal -0.3411629283223319 0.937337441920624 0.07075575108945235
  outer loop
    vertex -25.078105828974124 22.58042791173753 35.0
    vertex -1.1324188690027488 32.42823355511561 20.0
    vertex -19.976983551366956 25.569372933030916 20.0
  endloop
endfacet
facet normal -0.48731734983602154 0.8440584093258089 -0.22380170284245351
  outer loop
    vertex -7.016171285400839 33.00849068255493 35.0
    vertex -1.1324188690027488 32.42823355511561 20.0
    vertex -25.078105828974124 22.58042791173753 35.0
  endloop
endfacet
facet normal 0.2749465179190064 0.9588524578745058 0.07075575108945345
  outer loop
    vertex -7.016171285400839 33.00849068255493 35.0
    vertex 18.144691331818784 26.90061115426598 20.0
    vertex -1.1324188690027488 32.42823355511561 20.0
  endloop
endfacet
facet normal 0.1018770674040507 0.9692955488095306 -0.22380170284245265
  outer loop
    vertex 13.725702218304496 30.828431929970566 35.0
    vertex 18.144691331818784 26.90061115426598 20.0
    vertex -7.016171285400839 33.00849068255493 35.0
  endloop
endfacet
facet normal 0.7767996693750004 0.6069024163578588 -0.16808251151705994
  outer loop
    vertex 18.144691331818784 26.90061115426598 20.0
    vertex 29.22482399407735 16.872959999999996 35.0
    vertex 30.491146159261152 11.097869610631296 20.0
  endloop
endfacet
facet normal 0.6691284658453721 0.7431424481963301 0.0025294039186469523
  outer loop
    vertex 29.22482399407735 16.872959999999996 35.0
    vertex 18.144691331818784 26.90061115426598 20.0
    vertex 13.725702218304496 30.828431929970566 35.0
  endloop
endfacet
facet normal 0.9851724236650314 0.034402979116431164 -0.1680825115170594
  outer loop
    vertex 30.491146159261152 11.097869610631296 20.0
    vertex 33.56105631934608 -3.5274091591531826 35.0
    vertex 31.19101950980653 -8.943880921549995 20.0
  endloop
endfacet
facet normal 0.9781444716912692 0.20791102571923487 0.002529403918647438
  outer loop
    vertex 29.22482399407735 16.872959999999996 35.0
    vertex 33.56105631934608 -3.5274091591531826 35.0
    vertex 30.491146159261152 11.097869610631296 20.0
  endloop
endfacet
facet normal 0.8172427968941317 -0.5512372268332155 -0.16808251151706186
  outer loop
    vertex 31.19101950980653 -8.943880921549995 20.0
    vertex 25.078105828974117 -22.580427911737534 35.0
    vertex 19.976983551366953 -25.569372933030923 20.0
  endloop
endfacet
facet normal 0.9135425352589104 -0.406735341946749 0.0025294039186453494
  outer loop
    vertex 33.56105631934608 -3.5274091591531826 35.0
    vertex 25.078105828974117 -22.580427911737534 35.0
    vertex 31.19101950980653 -8.943880921549995 20.0
  endloop
endfacet
facet normal 0.34116292832233147 -0.937337441920624 0.07075575108945252
  outer loop
    vertex 25.078105828974117 -22.580427911737534 35.0
    vertex 1.132418869002746 -32.42823355511561 20.0
    vertex 19.976983551366953 -25.569372933030923 20.0
  endloop
endfacet
facet normal 0.4873173498360215 -0.844058409325809 -0.2238017028424533
  outer loop
    vertex 7.016171285400836 -33.00849068255493 35.0
    vertex 1.132418869002746 -32.42823355511561 20.0
    vertex 25.078105828974117 -22.580427911737534 35.0
  endloop
endfacet
facet normal -0.10424518958477869 -0.9918267263091046 0.07357095505291524
  outer loop
    vertex 13.147101898201312 -32.54021906876251 50.00000000000001
    vertex -13.725702218304496 -30.828431929970566 35.0
    vertex 7.016171285400836 -33.00849068255493 35.0
  endloop
endfacet
facet normal 0.06784856874594243 -0.9702797376313111 -0.23227957822684578
  outer loop
    vertex -8.49043201256092 -34.05326283346169 50.00000000000001
    vertex -13.725702218304496 -30.828431929970566 35.0
    vertex 13.147101898201312 -32.54021906876251 50.00000000000001
  endloop
endfacet
facet normal -0.6673172525099378 -0.7411308919989708 0.07357095505291465
  outer loop
    vertex -8.49043201256092 -34.05326283346169 50.00000000000001
    vertex -29.22482399407735 -16.872959999999996 35.0
    vertex -13.725702218304496 -30.828431929970566 35.0
  endloop
endfacet
facet normal -0.515425475218409 -0.8248531851394137 -0.2322795782268465
  outer loop
    vertex -26.884909473695053 -22.559117623612092 50.00000000000001
    vertex -29.22482399407735 -16.872959999999996 35.0
    vertex -8.49043201256092 -34.05326283346169 50.00000000000001
  endloop
endfacet
facet normal -0.9271806465292448 -0.3746052972846103 0.002630579388724306
  outer loop
    vertex -35.01026530034171 -2.448156237749392 50.00000000000001
    vertex -29.22482399407735 -16.872959999999996 35.0
    vertex -26.884909473695053 -22.559117623612092 50.00000000000001
  endloop
endfacet
facet normal -0.9631219030254965 -0.20471788017618653 -0.1746046661710813
  outer loop
    vertex -33.56105631934608 3.52740915915318 35.0
    vertex -29.22482399407735 -16.872959999999996 35.0
    vertex -35.01026530034171 -2.448156237749392 50.00000000000001
  endloop
endfacet
facet normal -0.9702923690722428 0.24192105855475746 0.002630579388721849
  outer loop
    vertex -29.762889737408955 18.597917621163504 50.00000000000001
    vertex -33.56105631934608 3.52740915915318 35.0
    vertex -35.01026530034171 -2.448156237749392 50.00000000000001
  endloop
endfacet
facet normal -0.8995121380505082 0.4004886066432956 -0.17460466617108367
  outer loop
    vertex -25.078105828974124 22.58042791173753 35.0
    vertex -33.56105631934608 3.52740915915318 35.0
    vertex -29.762889737408955 18.597917621163504 50.00000000000001
  endloop
endfacet
facet normal -0.49864499259809003 0.8636784621197018 0.07357095505291471
  outer loop
    vertex -29.762889737408955 18.597917621163504 50.00000000000001
    vertex -7.016171285400839 33.00849068255493 35.0
    vertex -25.078105828974124 22.58042791173753 35.0
  endloop
endfacet
facet normal -0.6252067655373782 0.7450924089433799 -0.23227957822684517
  outer loop
    vertex -13.147101898201315 32.54021906876251 50.00000000000001
    vertex -7.016171285400839 33.00849068255493 35.0
    vertex -29.762889737408955 18.597917621163504 50.00000000000001
  endloop
endfacet
facet normal 0.10424518958477864 0.9918267263091046 0.0735709550529152
  outer loop
    vertex -13.147101898201315 32.54021906876251 50.00000000000001
    vertex 13.725702218304496 30.828431929970566 35.0
    vertex -7.016171285400839 33.00849068255493 35.0
  endloop
endfacet
facet normal -0.06784856874594239 0.9702797376313111 -0.23227957822684572
  outer loop
    vertex 8.49043201256092 34.05326283346169 50.00000000000001
    vertex 13.725702218304496 30.828431929970566 35.0
    vertex -13.147101898201315 32.54021906876251 50.00000000000001
  endloop
endfacet
facet normal 0.6673172525099378 0.7411308919989708 0.07357095505291465
  outer loop
    vertex 8.49043201256092 34.05326283346169 50.00000000000001
    vertex 29.22482399407735 16.872959999999996 35.0
    vertex 13.725702218304496 30.828431929970566 35.0
  endloop
endfacet
facet normal 0.515425475218409 0.8248531851394137 -0.2322795782268465
  outer loop
    vertex 26.884909473695053 22.559117623612092 50.00000000000001
    vertex 29.22482399407735 16.872959999999996 35.0
    vertex 8.49043201256092 34.05326283346169 50.00000000000001
  endloop
endfacet
facet normal 0.9631219030254965 0.20471788017618647 -0.1746046661710813
  outer loop
    vertex 29.22482399407735 16.872959999999996 35.0
    vertex 35.01026530034171 2.4481562377493895 50.00000000000001
    vertex 33.56105631934608 -3.5274091591531826 35.0
  endloop
endfacet
facet normal 0.9271806465292448 0.37460529728461023 0.0026305793887243267
  outer loop
    vertex 26.884909473695053 22.559117623612092 50.00000000000001
    vertex 35.01026530034171 2.4481562377493895 50.00000000000001
    vertex 29.22482399407735 16.872959999999996 35.0
  endloop
endfacet
facet normal 0.8995121380505081 -0.4004886066432956 -0.17460466617108358
  outer loop
    vertex 33.56105631934608 -3.5274091591531826 35.0
    vertex 29.76288973740895 -18.59791762116351 50.00000000000001
    vertex 25.078105828974117 -22.580427911737534 35.0
  endloop
endfacet
facet normal 0.9702923690722428 -0.24192105855475768 0.002630579388721954
  outer loop
    vertex 35.01026530034171 2.4481562377493895 50.00000000000001
    vertex 29.76288973740895 -18.59791762116351 50.00000000000001
    vertex 33.56105631934608 -3.5274091591531826 35.0
  endloop
endfacet
facet normal 0.49864499259809003 -0.8636784621197016 0.07357095505291474
  outer loop
    vertex 29.76288973740895 -18.59791762116351 50.00000000000001
    vertex 7.016171285400836 -33.00849068255493 35.0
    vertex 25.078105828974117 -22.580427911737534 35.0
  endloop
endfacet
facet normal 0.6252067655373782 -0.7450924089433798 -0.23227957822684553
  outer loop
    vertex 13.147101898201312 -32.54021906876251 50.00000000000001
    vertex 7.016171285400836 -33.00849068255493 35.0
    vertex 29.76288973740895 -18.59791762116351 50.00000000000001
  endloop
endfacet
facet normal 0.06955207465240451 -0.9946410070659626 0.0764969017304253
  outer loop
    vertex 19.34183432601 -30.953405326905262 65.0
    vertex -8.49043201256092 -34.05326283346169 50.00000000000001
    vertex 13.147101898201312 -32.54021906876251 50.00000000000001
  endloop
endfacet
facet normal 0.23478882821591707 -0.9416865556156301 -0.2410407374652001
  outer loop
    vertex -2.5460824872593815 -36.41067591235535 65.0
    vertex -8.49043201256092 -34.05326283346169 50.00000000000001
    vertex 19.34183432601 -30.953405326905262 65.0
  endloop
endfacet
facet normal -0.5283665048908748 -0.8455631617656053 0.07649690173042586
  outer loop
    vertex -2.5460824872593815 -36.41067591235535 65.0
    vertex -26.884909473695053 -22.559117623612092 50.00000000000001
    vertex -8.49043201256092 -34.05326283346169 50.00000000000001
  endloop
endfacet
facet normal -0.3635613175569032 -0.8998458374958016 -0.24104073746520147
  outer loop
    vertex -23.461482328556546 -27.960305852642847 65.0
    vertex -26.884909473695053 -22.559117623612092 50.00000000000001
    vertex -2.5460824872593815 -36.41067591235535 65.0
  endloop
endfacet
facet normal -0.848044922495245 -0.5299172811095989 0.002735801791863837
  outer loop
    vertex -35.41539334680014 -8.830049293063338 65.0
    vertex -26.884909473695053 -22.559117623612092 50.00000000000001
    vertex -23.461482328556546 -27.960305852642847 65.0
  endloop
endfacet
facet normal -0.9118075729726101 -0.36839417239603683 -0.1813634020811192
  outer loop
    vertex -35.01026530034171 -2.448156237749392 50.00000000000001
    vertex -26.884909473695053 -22.559117623612092 50.00000000000001
    vertex -35.41539334680014 -8.830049293063338 65.0
  endloop
endfacet
facet normal -0.9975603170631856 0.0697562126935827 0.0027358017918614453
  outer loop
    vertex -33.841827831513044 13.672985974129375 65.0
    vertex -35.01026530034171 -2.448156237749392 50.00000000000001
    vertex -35.41539334680014 -8.830049293063338 65.0
  endloop
endfacet
facet normal -0.9542044836994984 0.2379098982248011 -0.181363402081121
  outer loop
    vertex -29.762889737408955 18.597917621163504 50.00000000000001
    vertex -35.01026530034171 -2.448156237749392 50.00000000000001
    vertex -33.841827831513044 13.672985974129375 65.0
  endloop
endfacet
facet normal -0.6409041256665353 0.7637997942715482 0.07649690173042692
  outer loop
    vertex -33.841827831513044 13.672985974129375 65.0
    vertex -13.147101898201315 32.54021906876251 50.00000000000001
    vertex -29.762889737408955 18.597917621163504 50.00000000000001
  endloop
endfacet
facet normal -0.7434576217890199 0.623835016239107 -0.24104073746520122
  outer loop
    vertex -13.147101898201315 32.54021906876251 50.00000000000001
    vertex -33.841827831513044 13.672985974129375 65.0
    vertex -19.341834326010005 30.953405326905262 65.0
  endloop
endfacet
facet normal -0.0695520746524045 0.9946410070659626 0.07649690173042531
  outer loop
    vertex -19.341834326010005 30.953405326905262 65.0
    vertex 8.49043201256092 34.05326283346169 50.00000000000001
    vertex -13.147101898201315 32.54021906876251 50.00000000000001
  endloop
endfacet
facet normal -0.23478882821591715 0.9416865556156301 -0.24104073746520027
  outer loop
    vertex 2.5460824872593815 36.41067591235535 65.0
    vertex 8.49043201256092 34.05326283346169 50.00000000000001
    vertex -19.341834326010005 30.953405326905262 65.0
  endloop
endfacet
facet normal 0.5283665048908748 0.8455631617656053 0.07649690173042586
  outer loop
    vertex 2.5460824872593815 36.41067591235535 65.0
    vertex 26.884909473695053 22.559117623612092 50.00000000000001
    vertex 8.49043201256092 34.05326283346169 50.00000000000001
  endloop
endfacet
facet normal 0.3635613175569032 0.8998458374958016 -0.24104073746520147
  outer loop
    vertex 23.461482328556546 27.960305852642847 65.0
    vertex 26.884909473695053 22.559117623612092 50.00000000000001
    vertex 2.5460824872593815 36.41067591235535 65.0
  endloop
endfacet
facet normal 0.9118075729726101 0.36839417239603683 -0.18136340208111917
  outer loop
    vertex 26.884909473695053 22.559117623612092 50.00000000000001
    vertex 35.41539334680014 8.830049293063334 65.0
    vertex 35.01026530034171 2.4481562377493895 50.00000000000001
  endloop
endfacet
facet normal 0.848044922495245 0.5299172811095988 0.0027358017918638583
  outer loop
    vertex 23.461482328556546 27.960305852642847 65.0
    vertex 35.41539334680014 8.830049293063334 65.0
    vertex 26.884909473695053 22.559117623612092 50.00000000000001
  endloop
endfacet
facet normal 0.9542044836994984 -0.23790989822480132 -0.18136340208112092
  outer loop
    vertex 35.01026530034171 2.4481562377493895 50.00000000000001
    vertex 33.84182783151304 -13.67298597412938 65.0
    vertex 29.76288973740895 -18.59791762116351 50.00000000000001
  endloop
endfacet
facet normal 0.9975603170631856 -0.06975621269358295 0.00273580179186154
  outer loop
    vertex 35.41539334680014 8.830049293063334 65.0
    vertex 33.84182783151304 -13.67298597412938 65.0
    vertex 35.01026530034171 2.4481562377493895 50.00000000000001
  endloop
endfacet
facet normal 0.6409041256665354 -0.7637997942715482 0.07649690173042654
  outer loop
    vertex 33.84182783151304 -13.67298597412938 65.0
    vertex 13.147101898201312 -32.54021906876251 50.00000000000001
    vertex 29.76288973740895 -18.59791762116351 50.00000000000001
  endloop
endfacet
facet normal 0.7434576217890198 -0.6238350162391071 -0.2410407374652009
  outer loop
    vertex 33.84182783151304 -13.67298597412938 65.0
    vertex 19.34183432601 -30.953405326905262 65.0
    vertex 13.147101898201312 -32.54021906876251 50.00000000000001
  endloop
endfacet
facet normal 0.24115545108006722 -0.9672216852101772 0.07953779022297897
  outer loop
    vertex 25.39991046250866 -28.209458435203082 80.00000000000001
    vertex -2.5460824872593815 -36.41067591235535 65.0
    vertex 19.34183432601 -30.953405326905262 65.0
  endloop
endfacet
facet normal 0.39381158380102443 -0.8845152992065655 -0.25009022758526384
  outer loop
    vertex 3.9678555764016594 -37.751624055604864 80.00000000000001
    vertex -2.5460824872593815 -36.41067591235535 65.0
    vertex 25.39991046250866 -28.209458435203082 80.00000000000001
  endloop
endfacet
facet normal -0.37341978405408177 -0.9242463983178127 0.07953779022297673
  outer loop
    vertex 3.9678555764016594 -37.751624055604864 80.00000000000001
    vertex -23.461482328556546 -27.960305852642847 65.0
    vertex -2.5460824872593815 -36.41067591235535 65.0
  endloop
endfacet
facet normal -0.20130478442393943 -0.9470645499829368 -0.2500902275852636
  outer loop
    vertex -18.97978527743995 -32.87395241727377 80.00000000000001
    vertex -23.461482328556546 -27.960305852642847 65.0
    vertex 3.9678555764016594 -37.751624055604864 80.00000000000001
  endloop
endfacet
facet normal -0.7431418174622804 -0.6691278979298837 0.0028452329946829506
  outer loop
    vertex -34.67779325447436 -15.439548300090834 80.00000000000001
    vertex -23.461482328556546 -27.960305852642847 65.0
    vertex -18.97978527743995 -32.87395241727377 80.00000000000001
  endloop
endfacet
facet normal -0.8328672137197471 -0.5204331960635848 -0.18836531725810754
  outer loop
    vertex -35.41539334680014 -8.830049293063338 65.0
    vertex -23.461482328556546 -27.960305852642847 65.0
    vertex -34.67779325447436 -15.439548300090834 80.00000000000001
  endloop
endfacet
facet normal -0.9945178698583185 -0.10452804016951131 0.002845232994680923
  outer loop
    vertex -37.13006286314147 7.8922384967811245 80.00000000000001
    vertex -35.41539334680014 -8.830049293063338 65.0
    vertex -34.67779325447436 -15.439548300090834 80.00000000000001
  endloop
endfacet
facet normal -0.9797066874065992 0.06850776529007757 -0.18836531725810915
  outer loop
    vertex -33.841827831513044 13.672985974129375 65.0
    vertex -35.41539334680014 -8.830049293063338 65.0
    vertex -37.13006286314147 7.8922384967811245 80.00000000000001
  endloop
endfacet
facet normal -0.8660218983876232 0.49999797615820746 0.002845232994683477
  outer loop
    vertex -25.39991046250866 28.209458435203082 80.00000000000001
    vertex -33.841827831513044 13.672985974129375 65.0
    vertex -37.13006286314147 7.8922384967811245 80.00000000000001
  endloop
endfacet
facet normal -0.752331505509698 0.6312810887962382 -0.188365317258107
  outer loop
    vertex -19.341834326010005 30.953405326905262 65.0
    vertex -33.841827831513044 13.672985974129375 65.0
    vertex -25.39991046250866 28.209458435203082 80.00000000000001
  endloop
endfacet
facet normal -0.24115545108006728 0.9672216852101772 0.07953779022297897
  outer loop
    vertex -25.39991046250866 28.209458435203082 80.00000000000001
    vertex 2.5460824872593815 36.41067591235535 65.0
    vertex -19.341834326010005 30.953405326905262 65.0
  endloop
endfacet
facet normal -0.3938115838010244 0.8845152992065652 -0.2500902275852639
  outer loop
    vertex -3.9678555764016594 37.751624055604864 80.00000000000001
    vertex 2.5460824872593815 36.41067591235535 65.0
    vertex -25.39991046250866 28.209458435203082 80.00000000000001
  endloop
endfacet
facet normal 0.37341978405408177 0.9242463983178127 0.07953779022297673
  outer loop
    vertex -3.9678555764016594 37.751624055604864 80.00000000000001
    vertex 23.461482328556546 27.960305852642847 65.0
    vertex 2.5460824872593815 36.41067591235535 65.0
  endloop
endfacet
facet normal 0.20130478442393943 0.9470645499829368 -0.2500902275852636
  outer loop
    vertex 18.97978527743995 32.87395241727377 80.00000000000001
    vertex 23.461482328556546 27.960305852642847 65.0
    vertex -3.9678555764016594 37.751624055604864 80.00000000000001
  endloop
endfacet
facet normal 0.8328672137197471 0.5204331960635848 -0.18836531725810748
  outer loop
    vertex 23.461482328556546 27.960305852642847 65.0
    vertex 34.67779325447436 15.439548300090832 80.00000000000001
    vertex 35.41539334680014 8.830049293063334 65.0
  endloop
endfacet
facet normal 0.7431418174622804 0.6691278979298836 0.0028452329946829966
  outer loop
    vertex 18.97978527743995 32.87395241727377 80.00000000000001
    vertex 34.67779325447436 15.439548300090832 80.00000000000001
    vertex 23.461482328556546 27.960305852642847 65.0
  endloop
endfacet
facet normal 0.9797066874065992 -0.0685077652900778 -0.188365317258109
  outer loop
    vertex 35.41539334680014 8.830049293063334 65.0
    vertex 37.13006286314147 -7.89223849678113 80.00000000000001
    vertex 33.84182783151304 -13.67298597412938 65.0
  endloop
endfacet
facet normal 0.9945178698583185 0.10452804016951105 0.002845232994681036
  outer loop
    vertex 34.67779325447436 15.439548300090832 80.00000000000001
    vertex 37.13006286314147 -7.89223849678113 80.00000000000001
    vertex 35.41539334680014 8.830049293063334 65.0
  endloop
endfacet
facet normal 0.7523315055096981 -0.6312810887962382 -0.18836531725810693
  outer loop
    vertex 33.84182783151304 -13.67298597412938 65.0
    vertex 25.39991046250866 -28.209458435203082 80.00000000000001
    vertex 19.34183432601 -30.953405326905262 65.0
  endloop
endfacet
facet normal 0.8660218983876232 -0.49999797615820757 0.0028452329946834984
  outer loop
    vertex 37.13006286314147 -7.89223849678113 80.00000000000001
    vertex 25.39991046250866 -28.209458435203082 80.00000000000001
    vertex 33.84182783151304 -13.67298597412938 65.0
  endloop
endfacet
facet normal -0.20764095014377182 -0.976873866007106 -0.051016524143875246
  outer loop
    vertex 11.509383221265503 -40.137989285541536 95.0
    vertex -18.97978527743995 -32.87395241727377 80.00000000000001
    vertex 3.9678555764016594 -37.751624055604864 80.00000000000001
  endloop
endfacet
facet normal -0.03225633220312114 -0.923700498946463 -0.38175504879288413
  outer loop
    vertex -14.28123153793693 -39.23736117248498 95.0
    vertex -18.97978527743995 -32.87395241727377 80.00000000000001
    vertex 11.509383221265503 -40.137989285541536 95.0
  endloop
endfacet
facet normal -0.6095934675167913 -0.7802440577876791 -0.1400536134766672
  outer loop
    vertex -34.616901250854426 -23.349394720394532 95.0
    vertex -18.97978527743995 -32.87395241727377 80.00000000000001
    vertex -14.28123153793693 -39.23736117248498 95.0
  endloop
endfacet
facet normal -0.7014603542192777 -0.6315977398536322 -0.33020851968165343
  outer loop
    vertex -34.67779325447436 -15.439548300090834 80.00000000000001
    vertex -18.97978527743995 -32.87395241727377 80.00000000000001
    vertex -34.616901250854426 -23.349394720394532 95.0
  endloop
endfacet
facet normal -0.9517874252374695 -0.2729206524101032 -0.14005361347666914
  outer loop
    vertex -41.73009127114432 1.457246898149221 95.0
    vertex -34.67779325447436 -15.439548300090834 80.00000000000001
    vertex -34.616901250854426 -23.349394720394532 95.0
  endloop
endfacet
facet normal -0.9387371843108884 -0.09866525387245333 -0.33020851968165427
  outer loop
    vertex -37.13006286314147 7.8922384967811245 80.00000000000001
    vertex -34.67779325447436 -15.439548300090834 80.00000000000001
    vertex -41.73009127114432 1.457246898149221 95.0
  endloop
endfacet
facet normal -0.9304309365821856 0.33864916595634165 -0.14005361347666598
  outer loop
    vertex -32.90380477949231 25.707269731600356 95.0
    vertex -37.13006286314147 7.8922384967811245 80.00000000000001
    vertex -41.73009127114432 1.457246898149221 95.0
  endloop
endfacet
facet normal -0.8174483164991148 0.4719540055793727 -0.330208519681653
  outer loop
    vertex -25.39991046250866 28.209458435203082 80.00000000000001
    vertex -37.13006286314147 7.8922384967811245 80.00000000000001
    vertex -32.90380477949231 25.707269731600356 95.0
  endloop
endfacet
facet normal -0.40620699439443625 0.9123558472270106 -0.05101652414387326
  outer loop
    vertex -32.90380477949231 25.707269731600356 95.0
    vertex -3.9678555764016594 37.751624055604864 80.00000000000001
    vertex -25.39991046250866 28.209458435203082 80.00000000000001
  endloop
endfacet
facet normal -0.5168416098874002 0.7662491977223491 -0.3817550487928835
  outer loop
    vertex -11.509383221265503 40.137989285541536 95.0
    vertex -3.9678555764016594 37.751624055604864 80.00000000000001
    vertex -32.90380477949231 25.707269731600356 95.0
  endloop
endfacet
facet normal 0.20764095014377182 0.976873866007106 -0.051016524143875246
  outer loop
    vertex -11.509383221265503 40.137989285541536 95.0
    vertex 18.97978527743995 32.87395241727377 80.00000000000001
    vertex -3.9678555764016594 37.751624055604864 80.00000000000001
  endloop
endfacet
facet normal 0.03225633220312114 0.923700498946463 -0.38175504879288413
  outer loop
    vertex 14.28123153793693 39.23736117248498 95.0
    vertex 18.97978527743995 32.87395241727377 80.00000000000001
    vertex -11.509383221265503 40.137989285541536 95.0
  endloop
endfacet
facet normal 0.7014603542192778 0.6315977398536322 -0.33020851968165355
  outer loop
    vertex 18.97978527743995 32.87395241727377 80.00000000000001
    vertex 34.616901250854426 23.349394720394532 95.0
    vertex 34.67779325447436 15.439548300090832 80.00000000000001
  endloop
endfacet
facet normal 0.6095934675167913 0.7802440577876791 -0.1400536134766672
  outer loop
    vertex 34.616901250854426 23.349394720394532 95.0
    vertex 18.97978527743995 32.87395241727377 80.00000000000001
    vertex 14.28123153793693 39.23736117248498 95.0
  endloop
endfacet
facet normal 0.9387371843108886 0.09866525387245312 -0.3302085196816542
  outer loop
    vertex 34.67779325447436 15.439548300090832 80.00000000000001
    vertex 41.73009127114431 -1.4572468981492284 95.0
    vertex 37.13006286314147 -7.89223849678113 80.00000000000001
  endloop
endfacet
facet normal 0.9517874252374695 0.2729206524101028 -0.140053613476669
  outer loop
    vertex 34.616901250854426 23.349394720394532 95.0
    vertex 41.73009127114431 -1.4572468981492284 95.0
    vertex 34.67779325447436 15.439548300090832 80.00000000000001
  endloop
endfacet
facet normal 0.8174483164991148 -0.4719540055793727 -0.3302085196816532
  outer loop
    vertex 37.13006286314147 -7.89223849678113 80.00000000000001
    vertex 32.90380477949231 -25.707269731600356 95.0
    vertex 25.39991046250866 -28.209458435203082 80.00000000000001
  endloop
endfacet
facet normal 0.9304309365821856 -0.3386491659563416 -0.14005361347666606
  outer loop
    vertex 41.73009127114431 -1.4572468981492284 95.0
    vertex 32.90380477949231 -25.707269731600356 95.0
    vertex 37.13006286314147 -7.89223849678113 80.00000000000001
  endloop
endfacet
facet normal 0.4062069943944364 -0.9123558472270106 -0.05101652414387328
  outer loop
    vertex 32.90380477949231 -25.707269731600356 95.0
    vertex 3.9678555764016594 -37.751624055604864 80.00000000000001
    vertex 25.39991046250866 -28.209458435203082 80.00000000000001
  endloop
endfacet
facet normal 0.5168416098874002 -0.7662491977223491 -0.3817550487928835
  outer loop
    vertex 11.509383221265503 -40.137989285541536 95.0
    vertex 3.9678555764016594 -37.751624055604864 80.00000000000001
    vertex 32.90380477949231 -25.707269731600356 95.0
  endloop
endfacet
endsolid Untitled-562555c6
